<svg xmlns="http://www.w3.org/2000/svg" xmlns:xlink="http://www.w3.org/1999/xlink" version="1.1" width="280.49064pt" height="208.13687pt" viewBox="0 0 280.49064 208.13687">
<defs>
<path id="font_0_9" d="M.12402344 .08300781H.28515626V.63964846L.10986328 .6044922V.69433596L.2841797 .7294922H.3828125V.08300781H.5439453V0H.12402344V.08300781Z"/>
<path id="font_0_10" d="M.19189453 .08300781H.5361328V0H.07324219V.08300781C.110677089 .12174479 .16170247 .17374675 .22631836 .23901367 .29093424 .3042806 .33154298 .34635417 .34814454 .36523438 .37972007 .40071617 .40177409 .43074546 .41430665 .45532228 .4268392 .47989909 .43310548 .50406906 .43310548 .52783206 .43310548 .56656906 .41951499 .59814456 .39233399 .6225586 .36515299 .64697268 .3297526 .6591797 .2861328 .6591797 .25520835 .6591797 .22257488 .6537679 .18823242 .64294436 .15388997 .6321208 .1171875 .61572268 .078125 .59375V.6933594C.11783854 .70947268 .15494792 .721639 .18945313 .7298584 .22395833 .7380778 .25553385 .7421875 .2841797 .7421875 .35970054 .7421875 .41992188 .7233073 .46484376 .6855469 .5097656 .64778646 .53222659 .59733077 .53222659 .5341797 .53222659 .50423178 .5266113 .47583009 .51538088 .4489746 .5041504 .42211915 .48372398 .39046226 .45410157 .3540039 .44596354 .3445638 .42008464 .31730143 .37646485 .2722168 .33284507 .22713216 .27132163 .1640625 .19189453 .08300781Z"/>
<path id="font_0_12" d="M.3779297 .64346316 .12890625 .25390626H.3779297V.64346316M.35205079 .7294922H.47607423V.25390626H.5800781V.171875H.47607423V0H.3779297V.171875H.048828126V.26716615L.35205079 .7294922Z"/>
<path id="font_0_16" d="M.3178711 .34570313C.2709961 .34570313 .23413086 .33317057 .20727539 .30810548 .18041992 .28304038 .16699219 .24853516 .16699219 .20458985 .16699219 .16064453 .18041992 .12613933 .20727539 .10107422 .23413086 .07600912 .2709961 .06347656 .3178711 .06347656 .3647461 .06347656 .40169273 .07609049 .42871095 .10131836 .45572917 .12654622 .46923829 .16097005 .46923829 .20458985 .46923829 .24853516 .45581056 .28304038 .42895509 .30810548 .4020996 .33317057 .36507163 .34570313 .3178711 .34570313M.21923828 .3879547C.17692058 .39838157 .1439616 .41808573 .12036133 .44706727 .09676107 .47605897 .08496094 .5114034 .08496094 .5531006 .08496094 .6114095 .10571289 .6575012 .1472168 .69137576 .1887207 .72525027 .24560547 .7421875 .3178711 .7421875 .39046226 .7421875 .44742839 .72525027 .48876954 .69137576 .53011068 .6575012 .55078127 .6114095 .55078127 .5531006 .55078127 .5114034 .53898116 .47605897 .51538088 .44706727 .4917806 .41808573 .45898438 .39838157 .4169922 .3879547 .46451823 .37687684 .5015462 .35521446 .5280762 .32296754 .55460616 .2907206 .5678711 .25130717 .5678711 .20472718 .5678711 .13404846 .54630538 .07981364 .5031738 .042022706 .46004234 .0042419435 .39827476-.0146484379 .3178711-.0146484379 .23746746-.0146484379 .17569988 .0042419435 .13256836 .042022706 .08943685 .07981364 .067871097 .13404846 .067871097 .20472718 .067871097 .25130717 .081217449 .2907206 .107910159 .32296754 .13460286 .35521446 .17171224 .37687684 .21923828 .3879547M.18310547 .5439453C.18310547 .5061849 .1949056 .47672526 .21850586 .4555664 .24210613 .43440757 .27522788 .42382813 .3178711 .42382813 .3601888 .42382813 .39331056 .43440757 .41723634 .4555664 .4411621 .47672526 .453125 .5061849 .453125 .5439453 .453125 .58170577 .4411621 .61116537 .41723634 .6323242 .39331056 .6534831 .3601888 .6640625 .3178711 .6640625 .27522788 .6640625 .24210613 .6534831 .21850586 .6323242 .1949056 .61116537 .18310547 .58170577 .18310547 .5439453Z"/>
<path id="font_0_14" d="M.33007813 .4033203C.28580729 .4033203 .25073243 .3881836 .22485352 .35791017 .19897461 .32763673 .18603516 .2861328 .18603516 .23339844 .18603516 .18098958 .19897461 .13956706 .22485352 .10913086 .25073243 .078694667 .28580729 .06347656 .33007813 .06347656 .37434898 .06347656 .40942384 .078694667 .43530274 .10913086 .46118165 .13956706 .4741211 .18098958 .4741211 .23339844 .4741211 .2861328 .46118165 .32763673 .43530274 .35791017 .40942384 .3881836 .37434898 .4033203 .33007813 .4033203M.5258789 .7128906V.6230469C.50113937 .6347656 .4761556 .64371749 .45092774 .64990237 .42569987 .6560872 .40071617 .6591797 .37597657 .6591797 .3108724 .6591797 .26114909 .6371663 .22680664 .59313967 .19246419 .549113 .17285156 .48258464 .16796875 .3935547 .18717449 .421875 .21126302 .44360353 .24023438 .45874024 .26920573 .47387696 .30110679 .4814453 .3359375 .4814453 .4091797 .4814453 .46704103 .45922853 .5095215 .41479493 .55200198 .37036134 .5732422 .30989585 .5732422 .23339844 .5732422 .15852864 .55110678 .098470058 .50683596 .053222658 .4625651 .007975261 .40364585-.0146484379 .33007813-.0146484379 .24576824-.0146484379 .18131511 .01767985 .13671875 .082336429 .0921224 .146993 .06982422 .24072266 .06982422 .3635254 .06982422 .47883097 .09716797 .5707652 .15185547 .639328 .20654297 .707901 .2799479 .7421875 .3720703 .7421875 .3968099 .7421875 .4217936 .7397461 .44702149 .7348633 .47224937 .72998049 .49853517 .72265627 .5258789 .7128906Z"/>
<path id="font_0_11" d="M.40576173 .3935547C.45296226 .3834432 .48982749 .36239625 .5163574 .33041383 .5428874 .29844157 .55615237 .258962 .55615237 .2119751 .55615237 .13986206 .5314128 .08406067 .4819336 .044570924 .43245445 .005091349 .36214195-.0146484379 .2709961-.0146484379 .24039714-.0146484379 .208903-.01163737 .17651367-.0056152346 .14412435 .00040690104 .110677089 .0094401049 .076171878 .021484375V.1171875C.103515628 .10107422 .13346355 .088907878 .16601563 .08068848 .1985677 .07246908 .23258464 .068359378 .2680664 .068359378 .32991538 .068359378 .37703453 .080607097 .40942384 .10510254 .44181315 .12960816 .4580078 .16521709 .4580078 .21192932 .4580078 .2550405 .44295249 .28876243 .4128418 .3130951 .3827311 .33743797 .3408203 .34960938 .28710938 .34960938H.20214844V.43066407H.29101563C.33951823 .43066407 .3766276 .44032798 .40234376 .45965577 .4280599 .47898356 .44091798 .50683596 .44091798 .5432129 .44091798 .5805664 .42765299 .6092326 .40112306 .6292114 .3745931 .64919027 .33658854 .6591797 .28710938 .6591797 .26009117 .6591797 .2311198 .65625 .20019531 .6503906 .16927083 .64453127 .1352539 .6354167 .09814453 .6230469V.7109375C.13557942 .7213542 .1706543 .7291667 .20336914 .734375 .23608399 .7395833 .2669271 .7421875 .29589845 .7421875 .37076823 .7421875 .43001304 .7251994 .4736328 .69122317 .5172526 .6572571 .5390625 .6113434 .5390625 .55348208 .5390625 .5131785 .52750656 .47913108 .50439456 .45133973 .48128257 .42354838 .44840495 .4042867 .40576173 .3935547Z"/>
<path id="font_0_13" d="M.107910159 .7294922H.4951172V.6464844H.19824219V.46777345C.21256511 .47265626 .22688802 .47631837 .24121094 .47875978 .25553385 .48120118 .26985679 .48242188 .2841797 .48242188 .3655599 .48242188 .43001304 .4600779 .47753907 .41539 .5250651 .37071229 .5488281 .31021119 .5488281 .23388672 .5488281 .15528362 .52441409 .09420776 .47558595 .05065918 .4267578 .007120768 .35791017-.0146484379 .26904298-.0146484379 .23844402-.0146484379 .20727539-.0120442709 .17553711-.0068359377 .14379883-.0016276041 .1110026 .006184896 .07714844 .016601563V.11621094C.10644531 .100097659 .13671875 .08809408 .16796875 .080200199 .19921875 .07230631 .23225911 .068359378 .26708985 .068359378 .32340495 .068359378 .3680013 .083211269 .4008789 .11291504 .4337565 .14262899 .4501953 .18295288 .4501953 .23388672 .4501953 .28482057 .4337565 .32513938 .4008789 .35484315 .3680013 .3845571 .32340495 .39941407 .26708985 .39941407 .24072266 .39941407 .21443685 .39648438 .18823242 .390625 .162028 .38476563 .1352539 .37565104 .107910159 .36328126V.7294922Z"/>
<path id="font_0_18" d="M.19677735 .3486328V.08105469H.35498048C.40804038 .08105469 .44734703 .09206136 .4729004 .11407471 .49845378 .13608806 .51123049 .16975911 .51123049 .21508789 .51123049 .2607422 .49845378 .29441325 .4729004 .31610108 .44734703 .3377889 .40804038 .3486328 .35498048 .3486328H.19677735M.19677735 .6484375V.42871095H.34277345C.39095054 .42871095 .4268392 .43774415 .45043946 .45581056 .4740397 .47387696 .48583985 .50146487 .48583985 .5385742 .48583985 .5753581 .4740397 .60286459 .45043946 .62109377 .4268392 .63932296 .39095054 .6484375 .34277345 .6484375H.19677735M.09814453 .7294922H.35009767C.42529298 .7294922 .4832357 .7138672 .5239258 .6826172 .5646159 .6513672 .58496096 .6069336 .58496096 .5493164 .58496096 .50472006 .57454428 .46923829 .55371096 .4428711 .5328776 .4165039 .5022786 .4000651 .46191407 .3935547 .5104167 .38312785 .5480957 .3613739 .5749512 .32829286 .60180667 .2952118 .6152344 .25390116 .6152344 .20436096 .6152344 .13917542 .59309896 .08881632 .5488281 .05328369 .5045573 .01776123 .441569 0 .35986329 0H.09814453V.7294922Z"/>
<path id="font_0_31" d="M.09423828 .7597656H.18408203V0H.09423828V.7597656Z"/>
<path id="font_0_34" d="M.30615235 .484375C.25797526 .484375 .21988933 .4655304 .19189453 .4278412 .16389974 .39016215 .14990235 .3385315 .14990235 .27294923 .14990235 .20736695 .16381836 .1557312 .19165039 .11804199 .21948242 .08036295 .25764976 .061523439 .30615235 .061523439 .3540039 .061523439 .3919271 .080444339 .41992188 .11828613 .44791667 .1561381 .46191407 .20769246 .46191407 .27294923 .46191407 .33788047 .44791667 .38934837 .41992188 .4273529 .3919271 .46536765 .3540039 .484375 .30615235 .484375M.30615235 .5605469C.38427735 .5605469 .44563804 .5351105 .49023438 .48423768 .53483077 .43337504 .5571289 .36294557 .5571289 .27294923 .5571289 .1832784 .53483077 .11292521 .49023438 .06188965 .44563804 .010864258 .38427735-.0146484379 .30615235-.0146484379 .22770183-.0146484379 .16625977 .010864258 .12182617 .06188965 .07739258 .11292521 .05517578 .1832784 .05517578 .27294923 .05517578 .36294557 .07739258 .43337504 .12182617 .48423768 .16625977 .5351105 .22770183 .5605469 .30615235 .5605469Z"/>
<path id="font_0_25" d="M.48779298 .5263672V.4423828C.46240235 .45638023 .43693034 .46687828 .41137696 .47387696 .38582359 .48087565 .36002604 .484375 .33398438 .484375 .27571617 .484375 .23046875 .46585594 .19824219 .42881776 .16601563 .39178977 .14990235 .3398336 .14990235 .27294923 .14990235 .20606487 .16601563 .15410359 .19824219 .11706543 .23046875 .08003744 .27571617 .061523439 .33398438 .061523439 .36002604 .061523439 .38582359 .06502279 .41137696 .072021488 .43693034 .07902018 .46240235 .08951823 .48779298 .103515628V.020507813C.46272788 .0087890629 .43676759 0 .4099121-.005859375 .38305665-.01171875 .3544922-.0146484379 .32421876-.0146484379 .24186199-.0146484379 .1764323 .011271159 .12792969 .06311035 .079427089 .11495972 .05517578 .184906 .05517578 .27294923 .05517578 .36229453 .07967123 .43256126 .12866211 .4837494 .177653 .5349477 .24479167 .5605469 .33007813 .5605469 .3577474 .5605469 .38476563 .55769857 .4111328 .55200198 .4375 .54630538 .46305339 .53776046 .48779298 .5263672Z"/>
<path id="font_0_30" d="M.09082031 .7597656H.18115235V.31103517L.44921876 .546875H.56396487L.27392579 .29101563 .5761719 0H.45898438L.18115235 .26708985V0H.09082031V.7597656Z"/>
<path id="font_0_3" d="M0 0Z"/>
<path id="font_0_37" d="M.4428711 .53125V.44628907C.41748048 .4593099 .39111329 .46907554 .36376954 .47558595 .33642579 .48209635 .30810548 .48535157 .2788086 .48535157 .23421224 .48535157 .20076497 .47850038 .1784668 .46479798 .15616863 .45109559 .14501953 .430542 .14501953 .4031372 .14501953 .38226319 .1529948 .36587016 .16894531 .35395814 .18489583 .3420461 .21695964 .33070884 .26513673 .3199463L.29589845 .31307984C.35970054 .2993876 .4050293 .2800649 .43188478 .2551117 .45874024 .23016866 .47216798 .19535828 .47216798 .15068054 .47216798 .09980774 .45206706 .05953471 .41186524 .02986145 .37166343 .00018819173 .31640626-.0146484379 .24609375-.0146484379 .21679688-.0146484379 .1862793-.01180013 .15454102-.0061035158 .122802738-.00040690104 .08935547 .0081380209 .05419922 .01953125V.11230469C.087402347 .095052089 .12011719 .08211263 .15234375 .07348633 .18457031 .06486002 .21647136 .060546876 .24804688 .060546876 .2903646 .060546876 .32291667 .06780497 .34570313 .08232117 .3684896 .096837367 .3798828 .11730448 .3798828 .14372254 .3798828 .16818746 .37166343 .1869456 .3552246 .19999695 .3387858 .2130483 .30273438 .22560628 .24707031 .2376709L.21582031 .24501038C.16015625 .25674949 .11995443 .274765 .095214847 .299057 .07047526 .32335917 .05810547 .3567098 .05810547 .3991089 .05810547 .4506429 .07633463 .49043275 .11279297 .5184784 .1492513 .54652407 .20100911 .5605469 .2680664 .5605469 .30126954 .5605469 .33251954 .55810549 .3618164 .55322268 .39111329 .54833987 .4181315 .5410156 .4428711 .53125Z"/>
<path id="font_0_29" d="M.09423828 .546875H.18408203V0H.09423828V.546875M.09423828 .7597656H.18408203V.6455078H.09423828V.7597656Z"/>
<path id="font_0_40" d="M.05517578 .546875H.4819336V.4649353L.14404297 .072265628H.4819336V0H.04296875V.0819397L.38085938 .47460938H.05517578V.546875Z"/>
<path id="font_0_27" d="M.5620117 .29589845V.25195313H.14892578C.15283203 .1899414 .1714681 .1427002 .20483399 .11022949 .23819988 .07775879 .28466798 .061523439 .34423829 .061523439 .3787435 .061523439 .41219078 .06575521 .44458009 .07421875 .4769694 .08268229 .50911459 .0953776 .5410156 .11230469V.02734375C.50878909 .013671875 .4757487 .0032552083 .44189454-.00390625 .40804038-.011067708 .3736979-.0146484379 .3388672-.0146484379 .2516276-.0146484379 .18253581 .010782878 .1315918 .061645509 .08064779 .11251831 .05517578 .18132019 .05517578 .26805116 .05517578 .35772196 .0793457 .42888896 .12768555 .48155213 .17602539 .5342153 .24121094 .5605469 .3232422 .5605469 .3968099 .5605469 .45499674 .53681948 .49780274 .48936463 .5406087 .44191996 .5620117 .37743125 .5620117 .29589845M.47216798 .32226563C.47151695 .37157188 .45776368 .4109141 .4309082 .44029237 .40405274 .4696808 .3684896 .484375 .32421876 .484375 .27408854 .484375 .2339681 .47016908 .20385742 .4417572 .17374675 .4133555 .15641277 .3733622 .15185547 .32177735L.47216798 .32226563Z"/>
<path id="font_0_8" d="M.3178711 .6640625C.26708985 .6640625 .22892253 .6390584 .20336914 .5890503 .17781575 .5390422 .16503906 .4638672 .16503906 .3635254 .16503906 .26350913 .17781575 .1884969 .20336914 .13848877 .22892253 .08848063 .26708985 .06347656 .3178711 .06347656 .36897788 .06347656 .40730796 .08848063 .43286134 .13848877 .4584147 .1884969 .4711914 .26350913 .4711914 .3635254 .4711914 .4638672 .4584147 .5390422 .43286134 .5890503 .40730796 .6390584 .36897788 .6640625 .3178711 .6640625M.3178711 .7421875C.3995768 .7421875 .46199546 .7098592 .50512698 .64520266 .5482585 .5805461 .5698242 .48665367 .5698242 .3635254 .5698242 .24072266 .5482585 .146993 .50512698 .082336429 .46199546 .01767985 .3995768-.0146484379 .3178711-.0146484379 .23616536-.0146484379 .17374675 .01767985 .13061524 .082336429 .08748373 .146993 .06591797 .24072266 .06591797 .3635254 .06591797 .48665367 .08748373 .5805461 .13061524 .64520266 .17374675 .7098592 .23616536 .7421875 .3178711 .7421875Z"/>
<path id="font_0_6" d="M.106933597 .12402344H.20996094V0H.106933597V.12402344Z"/>
<path id="font_0_15" d="M.08203125 .7294922H.55078127V.6874695L.2861328 0H.18310547L.4321289 .6464844H.08203125V.7294922Z"/>
<path id="font_0_20" d="M.09814453 .7294922H.23095703L.5541992 .11921692V.7294922H.64990237V0H.51708987L.19384766 .61027529V0H.09814453V.7294922Z"/>
<path id="font_0_36" d="M.4111328 .46289063C.40104167 .46891276 .39005534 .473348 .37817384 .4761963 .36629234 .4790446 .3531901 .48046876 .3388672 .48046876 .28808595 .48046876 .24910482 .4639028 .22192383 .43077088 .19474285 .39764915 .18115235 .3500875 .18115235 .28808595V0H.09082031V.546875H.18115235V.46191407C.20003255 .49527995 .22460938 .52006027 .2548828 .5362549 .28515626 .5524495 .3219401 .5605469 .36523438 .5605469 .37141929 .5605469 .37825523 .56013998 .3857422 .5593262 .39322917 .5585124 .40152995 .5572917 .41064454 .55566409L.4111328 .46289063Z"/>
<path id="font_0_32" d="M.52001956 .44189454C.54248049 .48242188 .56933596 .5123291 .60058596 .5316162 .63183596 .5509033 .6686198 .5605469 .7109375 .5605469 .7679036 .5605469 .81184896 .5405629 .84277346 .5005951 .87369796 .46063743 .88916018 .40379844 .88916018 .33007813V0H.7988281V.32714845C.7988281 .37972007 .7895508 .41874186 .7709961 .44421388 .7524414 .46968589 .7241211 .48242188 .68603518 .48242188 .63948568 .48242188 .60270187 .46691386 .5756836 .43589784 .54866537 .40489198 .53515627 .36262004 .53515627 .30908204V0H.44482423V.32714845C.44482423 .38004557 .43554688 .41914878 .4169922 .444458 .3984375 .46976725 .36979167 .48242188 .3310547 .48242188 .28515626 .48242188 .24869792 .4668325 .22167969 .4356537 .19466146 .40448509 .18115235 .36229453 .18115235 .30908204V0H.09082031V.546875H.18115235V.46191407C.20166016 .49560548 .22623699 .5204671 .2548828 .536499 .28352867 .55253097 .31754557 .5605469 .3569336 .5605469 .39664714 .5605469 .43041993 .55041506 .45825196 .53015139 .48608399 .5098877 .50667318 .48046876 .52001956 .44189454Z"/>
<path id="font_0_24" d="M.34277345 .27539063C.27018229 .27539063 .21988933 .26704917 .19189453 .2503662 .16389974 .23369344 .14990235 .20524597 .14990235 .1650238 .14990235 .13298035 .16040039 .107554119 .18139649 .08874512 .20239258 .06994629 .23095703 .060546876 .26708985 .060546876 .31689454 .060546876 .3568522 .07828776 .3869629 .11376953 .41707359 .14926148 .4321289 .19644673 .4321289 .25532533V.27539063H.34277345M.52197268 .3125V0H.4321289V.08300781C.4116211 .049641927 .38606773 .025024414 .35546876 .009155273 .32486979-.006713867 .2874349-.0146484379 .24316406-.0146484379 .18717449-.0146484379 .1426595 .0010986328 .10961914 .032592775 .07657877 .064097087 .060058595 .106287639 .060058595 .15916443 .060058595 .22085063 .08064779 .2673594 .12182617 .2986908 .16300456 .33003236 .22444661 .34570313 .30615235 .34570313H.4321289V.3544922C.4321289 .39583335 .41853843 .42781578 .39135743 .45043946 .36417643 .47306315 .32600913 .484375 .27685548 .484375 .24560547 .484375 .21516927 .4806315 .18554688 .47314454 .15592449 .46565757 .1274414 .4544271 .100097659 .43945313V.52246096C.13297527 .53515627 .1648763 .54467776 .19580078 .5510254 .22672527 .55737307 .25683595 .5605469 .2861328 .5605469 .36523438 .5605469 .4243164 .54003909 .4633789 .49902345 .5024414 .4580078 .52197268 .39583335 .52197268 .3125Z"/>
<path id="font_0_26" d="M.45410157 .4638672V.7597656H.5439453V0H.45410157V.08203125C.43522135 .049316408 .41137696 .025024414 .38256837 .009155273 .35375978-.006713867 .3191732-.0146484379 .2788086-.0146484379 .21272786-.0146484379 .15893555 .011764526 .11743164 .064590457 .075927738 .11741638 .05517578 .18686931 .05517578 .27294923 .05517578 .35902915 .075927738 .42848207 .11743164 .48130799 .15893555 .5341339 .21272786 .5605469 .2788086 .5605469 .3191732 .5605469 .35375978 .5526123 .38256837 .53674319 .41137696 .520874 .43522135 .49658204 .45410157 .4638672M.14794922 .27294923C.14794922 .2067159 .16153972 .15475464 .1887207 .11706543 .21590169 .07938639 .25325523 .060546876 .30078126 .060546876 .34830729 .060546876 .3857422 .07938639 .41308595 .11706543 .4404297 .15475464 .45410157 .2067159 .45410157 .27294923 .45410157 .33918254 .4404297 .3911387 .41308595 .42881776 .3857422 .46650697 .34830729 .48535157 .30078126 .48535157 .25325523 .48535157 .21590169 .46650697 .1887207 .42881776 .16153972 .3911387 .14794922 .33918254 .14794922 .27294923Z"/>
<path id="font_0_38" d="M.18310547 .70214846V.546875H.36816407V.4765625H.18310547V.18005371C.18310547 .13550823 .18920899 .106892909 .20141602 .09420776 .21362305 .0815328 .23844402 .07519531 .2758789 .07519531H.36816407V0H.2758789C.20654297 0 .1586914 .01292928 .13232422 .03878784 .10595703 .06465658 .09277344 .1117452 .09277344 .18005371V.4765625H.026855469V.546875H.09277344V.70214846H.18310547Z"/>
<path id="font_0_33" d="M.5488281 .33007813V0H.45898438V.32714845C.45898438 .379069 .44889323 .41792808 .42871095 .4437256 .40852867 .4695231 .37825523 .48242188 .33789063 .48242188 .28938804 .48242188 .2511393 .46691386 .22314453 .43589784 .19514974 .40489198 .18115235 .36262004 .18115235 .30908204V0H.09082031V.546875H.18115235V.46191407C.20263672 .49495445 .22794597 .5196533 .25708009 .53601077 .2862142 .55236819 .31982423 .5605469 .35791017 .5605469 .4207357 .5605469 .46826173 .54105636 .5004883 .5020752 .53271487 .4630941 .5488281 .40576173 .5488281 .33007813Z"/>
<path id="font_0_39" d="M.32177735-.05078125C.29638673-.115885417 .27164714-.15836589 .2475586-.17822266 .22347005-.19807942 .19124349-.20800781 .1508789-.20800781H.07910156V-.1328125H.13183594C.15657552-.1328125 .17578125-.12695313 .18945313-.115234378 .203125-.103515628 .21826172-.07584635 .23486328-.032226564L.25097657 .0087890629 .029785157 .546875H.125L.29589845 .119140628 .46679688 .546875H.5620117L.32177735-.05078125Z"/>
<path id="font_0_4" d="M.3100586 .75878909C.2664388 .68391928 .23404949 .6098633 .21289063 .5366211 .19173177 .4633789 .18115235 .38916017 .18115235 .31396485 .18115235 .23876953 .19181316 .16430664 .21313477 .09057617 .23445638 .016845704 .2667643-.057291669 .3100586-.13183594H.2319336C.18310547-.055338544 .14656575 .019856772 .12231445 .09375 .09806315 .16764324 .0859375 .24104817 .0859375 .31396485 .0859375 .386556 .09798177 .4596354 .12207031 .5332031 .14615886 .6067708 .18277996 .6819661 .2319336 .75878909H.3100586Z"/>
<path id="font_0_7" d="M.25390626 .7294922H.33691407L.08300781-.09277344H0L.25390626 .7294922Z"/>
<path id="font_0_5" d="M.080078128 .75878909H.15820313C.20703125 .6819661 .24357097 .6067708 .26782228 .5332031 .29207359 .4596354 .30419923 .386556 .30419923 .31396485 .30419923 .24104817 .29207359 .16764324 .26782228 .09375 .24357097 .019856772 .20703125-.055338544 .15820313-.13183594H.080078128C.1233724-.057291669 .15568035 .016845704 .17700196 .09057617 .19832357 .16430664 .20898438 .23876953 .20898438 .31396485 .20898438 .38916017 .19832357 .4633789 .17700196 .5366211 .15568035 .6098633 .1233724 .68391928 .080078128 .75878909Z"/>
<clipPath id="clip_1">
<path transform="matrix(1,0,0,-1,0,208.13687)" d="M52.090627 39.496877H273.29063V200.93688H52.090627Z"/>
</clipPath>
<clipPath id="clip_2">
<path transform="matrix(1,0,0,-1,62.145174,143.28092)" d="M-7-7H7V7H-7Z"/>
</clipPath>
<clipPath id="clip_3">
<path transform="matrix(1,0,0,-1,87.28154,146.15427)" d="M-7-7H7V7H-7Z"/>
</clipPath>
<clipPath id="clip_4">
<path transform="matrix(1,0,0,-1,112.41791,145.9078)" d="M-7-7H7V7H-7Z"/>
</clipPath>
<clipPath id="clip_5">
<path transform="matrix(1,0,0,-1,137.55428,157.27472)" d="M-7-7H7V7H-7Z"/>
</clipPath>
<clipPath id="clip_6">
<path transform="matrix(1,0,0,-1,162.69065,161.17563)" d="M-7-7H7V7H-7Z"/>
</clipPath>
<clipPath id="clip_7">
<path transform="matrix(1,0,0,-1,187.82701,161.30184)" d="M-7-7H7V7H-7Z"/>
</clipPath>
<clipPath id="clip_8">
<path transform="matrix(1,0,0,-1,212.96338,161.16402)" d="M-7-7H7V7H-7Z"/>
</clipPath>
<clipPath id="clip_9">
<path transform="matrix(1,0,0,-1,238.09975,160.57529)" d="M-7-7H7V7H-7Z"/>
</clipPath>
<clipPath id="clip_10">
<path transform="matrix(1,0,0,-1,263.2361,150.9102)" d="M-7-7H7V7H-7Z"/>
</clipPath>
<clipPath id="clip_11">
<path transform="matrix(1,0,0,-1,0,208.13687)" d="M52.090627 39.496877H273.29063V200.93688H52.090627Z"/>
</clipPath>
<clipPath id="clip_12">
<path transform="matrix(1,0,0,-1,62.145174,132.60253)" d="M-7-7H7V7H-7Z"/>
</clipPath>
<clipPath id="clip_13">
<path transform="matrix(1,0,0,-1,87.28154,146.54065)" d="M-7-7H7V7H-7Z"/>
</clipPath>
<clipPath id="clip_14">
<path transform="matrix(1,0,0,-1,112.41791,144.767)" d="M-7-7H7V7H-7Z"/>
</clipPath>
<clipPath id="clip_15">
<path transform="matrix(1,0,0,-1,137.55428,156.00551)" d="M-7-7H7V7H-7Z"/>
</clipPath>
<clipPath id="clip_16">
<path transform="matrix(1,0,0,-1,162.69065,157.06298)" d="M-7-7H7V7H-7Z"/>
</clipPath>
<clipPath id="clip_17">
<path transform="matrix(1,0,0,-1,187.82701,157.56862)" d="M-7-7H7V7H-7Z"/>
</clipPath>
<clipPath id="clip_18">
<path transform="matrix(1,0,0,-1,212.96338,146.54225)" d="M-7-7H7V7H-7Z"/>
</clipPath>
<clipPath id="clip_19">
<path transform="matrix(1,0,0,-1,238.09975,123.06883)" d="M-7-7H7V7H-7Z"/>
</clipPath>
<clipPath id="clip_20">
<path transform="matrix(1,0,0,-1,263.2361,14.5381779)" d="M-7-7H7V7H-7Z"/>
</clipPath>
<path id="font_0_22" d="M.53515627 .7050781V.60839846C.49772135 .62646487 .46240235 .6399333 .42919923 .6488037 .3959961 .65767416 .36393229 .6621094 .3330078 .6621094 .27929688 .6621094 .23787435 .6516774 .20874024 .6308136 .17960613 .6099599 .16503906 .58030197 .16503906 .5418396 .16503906 .5095723 .17472331 .48520408 .1940918 .46873475 .21346028 .4522756 .25016276 .43899537 .30419923 .42889405L.36376954 .41670228C.43733726 .4026947 .49161784 .37802125 .5266113 .34268189 .5616048 .3073527 .57910159 .26005046 .57910159 .20077515 .57910159 .13010662 .5554199 .076533 .50805667 .04005432 .46069337 .0035858155 .39127604-.0146484379 .2998047-.0146484379 .26529948-.0146484379 .228597-.010701497 .18969727-.0028076173 .15079753 .005086263 .11051432 .016764323 .068847659 .032226564V.13378906C.10888672 .11116537 .14811199 .09411621 .18652344 .0826416 .22493489 .07116699 .2626953 .06542969 .2998047 .06542969 .35611979 .06542969 .3995768 .07650757 .43017579 .09866333 .46077476 .12082926 .47607423 .15244039 .47607423 .1934967 .47607423 .22934468 .4650879 .25737 .44311524 .27757264 .42114259 .29778544 .38509117 .3129425 .33496095 .32304383L.27490235 .3347473C.20133464 .3494059 .14811199 .37236534 .115234378 .4036255 .08235677 .43489585 .06591797 .4783783 .06591797 .5340729 .06591797 .5985565 .08862305 .6493632 .1340332 .6864929 .17944336 .7236226 .24202474 .7421875 .32177735 .7421875 .35595704 .7421875 .39078776 .73909506 .42626954 .73291018 .4617513 .7267253 .49804688 .71744796 .53515627 .7050781Z"/>
<path id="font_0_28" d="M.5488281 .33007813V0H.45898438V.32714845C.45898438 .379069 .44889323 .41792808 .42871095 .4437256 .40852867 .4695231 .37825523 .48242188 .33789063 .48242188 .28938804 .48242188 .2511393 .46691386 .22314453 .43589784 .19514974 .40489198 .18115235 .36262004 .18115235 .30908204V0H.09082031V.7597656H.18115235V.46191407C.20263672 .49495445 .22794597 .5196533 .25708009 .53601077 .2862142 .55236819 .31982423 .5605469 .35791017 .5605469 .4207357 .5605469 .46826173 .54105636 .5004883 .5020752 .53271487 .4630941 .5488281 .40576173 .5488281 .33007813Z"/>
<path id="font_0_19" d="M.59521487 .10359192V.2998047H.43408204V.38085938H.6928711V.06738281C.65478518 .040364583 .61279299 .01993815 .56689456 .0061035158 .5209961-.0077311198 .47200523-.0146484379 .41992188-.0146484379 .3059896-.0146484379 .21687825 .018656413 .15258789 .08526611 .08829752 .15187581 .056152345 .2446289 .056152345 .3635254 .056152345 .4827474 .08829752 .57566329 .15258789 .64227297 .21687825 .70888265 .3059896 .7421875 .41992188 .7421875 .4674479 .7421875 .51261398 .7363281 .5554199 .7246094 .5982259 .7128906 .6376953 .695638 .6738281 .67285159V.5673828C.6373698 .59847006 .5986328 .6218669 .5576172 .63757327 .51660159 .6532796 .47347007 .6611328 .42822267 .6611328 .33902995 .6611328 .27205406 .63621017 .22729492 .58636477 .18253581 .53651937 .16015625 .4622396 .16015625 .3635254 .16015625 .26513673 .18253581 .1910197 .22729492 .14117432 .27205406 .09132894 .33902995 .06640625 .42822267 .06640625 .46305339 .06640625 .49414063 .0694224 .5214844 .07545471 .5488281 .08148702 .57340499 .09086609 .59521487 .10359192Z"/>
<path id="font_0_21" d="M.19677735 .6484375V.37402345H.32080079C.36669923 .37402345 .402181 .3859253 .4272461 .409729 .4523112 .4335327 .46484376 .4674479 .46484376 .5114746 .46484376 .5551758 .4523112 .5889282 .4272461 .61273196 .402181 .63653567 .36669923 .6484375 .32080079 .6484375H.19677735M.09814453 .7294922H.32080079C.4025065 .7294922 .46427409 .71099856 .5061035 .67401126 .5479329 .6370239 .56884768 .58284506 .56884768 .5114746 .56884768 .43945313 .5479329 .38503013 .5061035 .34820558 .46427409 .311381 .4025065 .29296876 .32080079 .29296876H.19677735V0H.09814453V.7294922Z"/>
<path id="font_0_23" d="M-.0029296876 .7294922H.61376956V.6464844H.35498048V0H.25585938V.6464844H-.0029296876V.7294922Z"/>
<path id="font_0_17" d="M.34179688 .6323242 .20800781 .26953126H.47607423L.34179688 .6323242M.2861328 .7294922H.39794923L.67578127 0H.5732422L.50683596 .1875H.17822266L.111816409 0H.0078125L.2861328 .7294922Z"/>
<path id="font_0_35" d="M.18115235 .08203125V-.20800781H.09082031V.546875H.18115235V.4638672C.20003255 .49658204 .22387696 .520874 .25268556 .53674319 .28149415 .5526123 .31591798 .5605469 .35595704 .5605469 .42236329 .5605469 .47631837 .5341339 .51782229 .48130799 .5593262 .42848207 .5800781 .35902915 .5800781 .27294923 .5800781 .18686931 .5593262 .11741638 .51782229 .064590457 .47631837 .011764526 .42236329-.0146484379 .35595704-.0146484379 .31591798-.0146484379 .28149415-.006713867 .25268556 .009155273 .22387696 .025024414 .20003255 .049316408 .18115235 .08203125M.4868164 .27294923C.4868164 .33918254 .47322593 .3911387 .44604493 .42881776 .41886393 .46650697 .3815104 .48535157 .33398438 .48535157 .28645835 .48535157 .24910482 .46650697 .22192383 .42881776 .19474285 .3911387 .18115235 .33918254 .18115235 .27294923 .18115235 .2067159 .19474285 .15475464 .22192383 .11706543 .24910482 .07938639 .28645835 .060546876 .33398438 .060546876 .3815104 .060546876 .41886393 .07938639 .44604493 .11706543 .47322593 .15475464 .4868164 .2067159 .4868164 .27294923Z"/>
</defs>
<path transform="matrix(1,0,0,-1,0,208.13687)" d="M0 0H280.49064V208.13687H0Z" fill="#ffffff"/>
<path transform="matrix(1,0,0,-1,0,208.13687)" d="M52.090627 39.496877H273.29063V200.93688H52.090627Z" fill="#ffffff"/>
<path transform="matrix(1,0,0,-1,0,208.13687)" d="M62.14517 39.496877V35.996877"/>
<path transform="matrix(1,0,0,-1,0,208.13687)" stroke-width=".8" stroke-linecap="butt" stroke-linejoin="round" fill="none" stroke="#000000" d="M62.14517 39.496877V35.996877"/>
<use data-text="1" xlink:href="#font_0_9" transform="matrix(10,0,0,-10,58.965486,183.23375)"/>
<path transform="matrix(1,0,0,-1,0,208.13687)" d="M87.28153 39.496877V35.996877"/>
<path transform="matrix(1,0,0,-1,0,208.13687)" stroke-width=".8" stroke-linecap="butt" stroke-linejoin="round" fill="none" stroke="#000000" d="M87.28153 39.496877V35.996877"/>
<use data-text="2" xlink:href="#font_0_10" transform="matrix(10,0,0,-10,84.101848,183.23375)"/>
<path transform="matrix(1,0,0,-1,0,208.13687)" d="M112.4179 39.496877V35.996877"/>
<path transform="matrix(1,0,0,-1,0,208.13687)" stroke-width=".8" stroke-linecap="butt" stroke-linejoin="round" fill="none" stroke="#000000" d="M112.4179 39.496877V35.996877"/>
<use data-text="4" xlink:href="#font_0_12" transform="matrix(10,0,0,-10,109.23821,183.23375)"/>
<path transform="matrix(1,0,0,-1,0,208.13687)" d="M137.55426 39.496877V35.996877"/>
<path transform="matrix(1,0,0,-1,0,208.13687)" stroke-width=".8" stroke-linecap="butt" stroke-linejoin="round" fill="none" stroke="#000000" d="M137.55426 39.496877V35.996877"/>
<use data-text="8" xlink:href="#font_0_16" transform="matrix(10,0,0,-10,134.37458,183.23375)"/>
<path transform="matrix(1,0,0,-1,0,208.13687)" d="M162.69063 39.496877V35.996877"/>
<path transform="matrix(1,0,0,-1,0,208.13687)" stroke-width=".8" stroke-linecap="butt" stroke-linejoin="round" fill="none" stroke="#000000" d="M162.69063 39.496877V35.996877"/>
<use data-text="1" xlink:href="#font_0_9" transform="matrix(10,0,0,-10,156.33126,183.23375)"/>
<use data-text="6" xlink:href="#font_0_14" transform="matrix(10,0,0,-10,162.69126,183.23375)"/>
<path transform="matrix(1,0,0,-1,0,208.13687)" d="M187.827 39.496877V35.996877"/>
<path transform="matrix(1,0,0,-1,0,208.13687)" stroke-width=".8" stroke-linecap="butt" stroke-linejoin="round" fill="none" stroke="#000000" d="M187.827 39.496877V35.996877"/>
<use data-text="3" xlink:href="#font_0_11" transform="matrix(10,0,0,-10,181.4676,183.23375)"/>
<use data-text="2" xlink:href="#font_0_10" transform="matrix(10,0,0,-10,187.8276,183.23375)"/>
<path transform="matrix(1,0,0,-1,0,208.13687)" d="M212.96335 39.496877V35.996877"/>
<path transform="matrix(1,0,0,-1,0,208.13687)" stroke-width=".8" stroke-linecap="butt" stroke-linejoin="round" fill="none" stroke="#000000" d="M212.96335 39.496877V35.996877"/>
<use data-text="6" xlink:href="#font_0_14" transform="matrix(10,0,0,-10,206.60398,183.23375)"/>
<use data-text="4" xlink:href="#font_0_12" transform="matrix(10,0,0,-10,212.96398,183.23375)"/>
<path transform="matrix(1,0,0,-1,0,208.13687)" d="M238.09972 39.496877V35.996877"/>
<path transform="matrix(1,0,0,-1,0,208.13687)" stroke-width=".8" stroke-linecap="butt" stroke-linejoin="round" fill="none" stroke="#000000" d="M238.09972 39.496877V35.996877"/>
<use data-text="1" xlink:href="#font_0_9" transform="matrix(10,0,0,-10,228.56066,183.23375)"/>
<use data-text="2" xlink:href="#font_0_10" transform="matrix(10,0,0,-10,234.92066,183.23375)"/>
<use data-text="8" xlink:href="#font_0_16" transform="matrix(10,0,0,-10,241.28066,183.23375)"/>
<path transform="matrix(1,0,0,-1,0,208.13687)" d="M263.23609 39.496877V35.996877"/>
<path transform="matrix(1,0,0,-1,0,208.13687)" stroke-width=".8" stroke-linecap="butt" stroke-linejoin="round" fill="none" stroke="#000000" d="M263.23609 39.496877V35.996877"/>
<use data-text="2" xlink:href="#font_0_10" transform="matrix(10,0,0,-10,253.69702,183.23375)"/>
<use data-text="5" xlink:href="#font_0_13" transform="matrix(10,0,0,-10,260.057,183.23375)"/>
<use data-text="6" xlink:href="#font_0_14" transform="matrix(10,0,0,-10,266.41703,183.23375)"/>
<use data-text="B" xlink:href="#font_0_18" transform="matrix(12,0,0,-12,132.925,198.43688)"/>
<use data-text="l" xlink:href="#font_0_31" transform="matrix(12,0,0,-12,141.157,198.43688)"/>
<use data-text="o" xlink:href="#font_0_34" transform="matrix(12,0,0,-12,144.49301,198.43688)"/>
<use data-text="c" xlink:href="#font_0_25" transform="matrix(12,0,0,-12,151.837,198.43688)"/>
<use data-text="k" xlink:href="#font_0_30" transform="matrix(12,0,0,-12,158.43701,198.43688)"/>
<use data-text=" " xlink:href="#font_0_3" transform="matrix(12,0,0,-12,165.38501,198.43688)"/>
<use data-text="s" xlink:href="#font_0_37" transform="matrix(12,0,0,-12,169.201,198.43688)"/>
<use data-text="i" xlink:href="#font_0_29" transform="matrix(12,0,0,-12,175.453,198.43688)"/>
<use data-text="z" xlink:href="#font_0_40" transform="matrix(12,0,0,-12,178.789,198.43688)"/>
<use data-text="e" xlink:href="#font_0_27" transform="matrix(12,0,0,-12,185.089,198.43688)"/>
<path transform="matrix(1,0,0,-1,0,208.13687)" d="M52.090627 46.276254H48.590627"/>
<path transform="matrix(1,0,0,-1,0,208.13687)" stroke-width=".8" stroke-linecap="butt" stroke-linejoin="round" fill="none" stroke="#000000" d="M52.090627 46.276254H48.590627"/>
<use data-text="0" xlink:href="#font_0_8" transform="matrix(10,0,0,-10,29.184376,165.6575)"/>
<use data-text="." xlink:href="#font_0_6" transform="matrix(10,0,0,-10,35.544378,165.6575)"/>
<use data-text="0" xlink:href="#font_0_8" transform="matrix(10,0,0,-10,38.724378,165.6575)"/>
<path transform="matrix(1,0,0,-1,0,208.13687)" d="M52.090627 66.46196H48.590627"/>
<path transform="matrix(1,0,0,-1,0,208.13687)" stroke-width=".8" stroke-linecap="butt" stroke-linejoin="round" fill="none" stroke="#000000" d="M52.090627 66.46196H48.590627"/>
<use data-text="2" xlink:href="#font_0_10" transform="matrix(10,0,0,-10,29.184376,145.47179)"/>
<use data-text="." xlink:href="#font_0_6" transform="matrix(10,0,0,-10,35.544378,145.47179)"/>
<use data-text="5" xlink:href="#font_0_13" transform="matrix(10,0,0,-10,38.724378,145.47179)"/>
<path transform="matrix(1,0,0,-1,0,208.13687)" d="M52.090627 86.64767H48.590627"/>
<path transform="matrix(1,0,0,-1,0,208.13687)" stroke-width=".8" stroke-linecap="butt" stroke-linejoin="round" fill="none" stroke="#000000" d="M52.090627 86.64767H48.590627"/>
<use data-text="5" xlink:href="#font_0_13" transform="matrix(10,0,0,-10,29.184376,125.28608)"/>
<use data-text="." xlink:href="#font_0_6" transform="matrix(10,0,0,-10,35.544378,125.28608)"/>
<use data-text="0" xlink:href="#font_0_8" transform="matrix(10,0,0,-10,38.724378,125.28608)"/>
<path transform="matrix(1,0,0,-1,0,208.13687)" d="M52.090627 106.833377H48.590627"/>
<path transform="matrix(1,0,0,-1,0,208.13687)" stroke-width=".8" stroke-linecap="butt" stroke-linejoin="round" fill="none" stroke="#000000" d="M52.090627 106.833377H48.590627"/>
<use data-text="7" xlink:href="#font_0_15" transform="matrix(10,0,0,-10,29.184376,105.10037)"/>
<use data-text="." xlink:href="#font_0_6" transform="matrix(10,0,0,-10,35.544378,105.10037)"/>
<use data-text="5" xlink:href="#font_0_13" transform="matrix(10,0,0,-10,38.724378,105.10037)"/>
<path transform="matrix(1,0,0,-1,0,208.13687)" d="M52.090627 127.01908H48.590627"/>
<path transform="matrix(1,0,0,-1,0,208.13687)" stroke-width=".8" stroke-linecap="butt" stroke-linejoin="round" fill="none" stroke="#000000" d="M52.090627 127.01908H48.590627"/>
<use data-text="1" xlink:href="#font_0_9" transform="matrix(10,0,0,-10,22.825,84.914669)"/>
<use data-text="0" xlink:href="#font_0_8" transform="matrix(10,0,0,-10,29.185002,84.914669)"/>
<use data-text="." xlink:href="#font_0_6" transform="matrix(10,0,0,-10,35.545003,84.914669)"/>
<use data-text="0" xlink:href="#font_0_8" transform="matrix(10,0,0,-10,38.725004,84.914669)"/>
<path transform="matrix(1,0,0,-1,0,208.13687)" d="M52.090627 147.20479H48.590627"/>
<path transform="matrix(1,0,0,-1,0,208.13687)" stroke-width=".8" stroke-linecap="butt" stroke-linejoin="round" fill="none" stroke="#000000" d="M52.090627 147.20479H48.590627"/>
<use data-text="1" xlink:href="#font_0_9" transform="matrix(10,0,0,-10,22.825,64.72896)"/>
<use data-text="2" xlink:href="#font_0_10" transform="matrix(10,0,0,-10,29.185002,64.72896)"/>
<use data-text="." xlink:href="#font_0_6" transform="matrix(10,0,0,-10,35.545003,64.72896)"/>
<use data-text="5" xlink:href="#font_0_13" transform="matrix(10,0,0,-10,38.725004,64.72896)"/>
<path transform="matrix(1,0,0,-1,0,208.13687)" d="M52.090627 167.3905H48.590627"/>
<path transform="matrix(1,0,0,-1,0,208.13687)" stroke-width=".8" stroke-linecap="butt" stroke-linejoin="round" fill="none" stroke="#000000" d="M52.090627 167.3905H48.590627"/>
<use data-text="1" xlink:href="#font_0_9" transform="matrix(10,0,0,-10,22.825,44.543245)"/>
<use data-text="5" xlink:href="#font_0_13" transform="matrix(10,0,0,-10,29.185002,44.543245)"/>
<use data-text="." xlink:href="#font_0_6" transform="matrix(10,0,0,-10,35.545003,44.543245)"/>
<use data-text="0" xlink:href="#font_0_8" transform="matrix(10,0,0,-10,38.725004,44.543245)"/>
<path transform="matrix(1,0,0,-1,0,208.13687)" d="M52.090627 187.5762H48.590627"/>
<path transform="matrix(1,0,0,-1,0,208.13687)" stroke-width=".8" stroke-linecap="butt" stroke-linejoin="round" fill="none" stroke="#000000" d="M52.090627 187.5762H48.590627"/>
<use data-text="1" xlink:href="#font_0_9" transform="matrix(10,0,0,-10,22.825,24.357544)"/>
<use data-text="7" xlink:href="#font_0_15" transform="matrix(10,0,0,-10,29.185002,24.357544)"/>
<use data-text="." xlink:href="#font_0_6" transform="matrix(10,0,0,-10,35.545003,24.357544)"/>
<use data-text="5" xlink:href="#font_0_13" transform="matrix(10,0,0,-10,38.725004,24.357544)"/>
<use data-text="N" xlink:href="#font_0_20" transform="matrix(0,-12,-12,-0,16.325,174.44344)"/>
<use data-text="o" xlink:href="#font_0_34" transform="matrix(0,-12,-12,-0,16.325,165.46744)"/>
<use data-text="r" xlink:href="#font_0_36" transform="matrix(0,-12,-12,-0,16.325,158.12345)"/>
<use data-text="m" xlink:href="#font_0_32" transform="matrix(0,-12,-12,-0,16.325,153.39456)"/>
<use data-text="a" xlink:href="#font_0_24" transform="matrix(0,-12,-12,-0,16.325,141.70656)"/>
<use data-text="l" xlink:href="#font_0_31" transform="matrix(0,-12,-12,-0,16.325,134.35056)"/>
<use data-text="i" xlink:href="#font_0_29" transform="matrix(0,-12,-12,-0,16.325,131.01456)"/>
<use data-text="z" xlink:href="#font_0_40" transform="matrix(0,-12,-12,-0,16.325,127.678569)"/>
<use data-text="e" xlink:href="#font_0_27" transform="matrix(0,-12,-12,-0,16.325,121.37857)"/>
<use data-text="d" xlink:href="#font_0_26" transform="matrix(0,-12,-12,-0,16.325,113.998569)"/>
<use data-text=" " xlink:href="#font_0_3" transform="matrix(0,-12,-12,-0,16.325,106.37856)"/>
<use data-text="l" xlink:href="#font_0_31" transform="matrix(0,-12,-12,-0,16.325,102.56256)"/>
<use data-text="a" xlink:href="#font_0_24" transform="matrix(0,-12,-12,-0,16.325,99.22656)"/>
<use data-text="t" xlink:href="#font_0_38" transform="matrix(0,-12,-12,-0,16.325,91.87056)"/>
<use data-text="e" xlink:href="#font_0_27" transform="matrix(0,-12,-12,-0,16.325,87.16656)"/>
<use data-text="n" xlink:href="#font_0_33" transform="matrix(0,-12,-12,-0,16.325,79.78656)"/>
<use data-text="c" xlink:href="#font_0_25" transform="matrix(0,-12,-12,-0,16.325,72.17856)"/>
<use data-text="y" xlink:href="#font_0_39" transform="matrix(0,-12,-12,-0,16.325,65.57856)"/>
<use data-text=" " xlink:href="#font_0_3" transform="matrix(0,-12,-12,-0,16.325,58.474565)"/>
<use data-text="(" xlink:href="#font_0_4" transform="matrix(0,-12,-12,-0,16.325,54.65856)"/>
<use data-text="s" xlink:href="#font_0_37" transform="matrix(0,-12,-12,-0,16.325,49.97856)"/>
<use data-text="/" xlink:href="#font_0_7" transform="matrix(0,-12,-12,-0,16.325,43.726564)"/>
<use data-text="t" xlink:href="#font_0_38" transform="matrix(0,-12,-12,-0,16.325,39.682558)"/>
<use data-text="o" xlink:href="#font_0_34" transform="matrix(0,-12,-12,-0,16.325,34.97856)"/>
<use data-text="k" xlink:href="#font_0_30" transform="matrix(0,-12,-12,-0,16.325,27.634568)"/>
<use data-text="e" xlink:href="#font_0_27" transform="matrix(0,-12,-12,-0,16.325,21.108445)"/>
<use data-text="n" xlink:href="#font_0_33" transform="matrix(0,-12,-12,-0,16.325,13.728439)"/>
<use data-text=")" xlink:href="#font_0_5" transform="matrix(0,-12,-12,-0,16.325,6.1204378)"/>
<g clip-path="url(#clip_1)">
<path transform="matrix(1,0,0,-1,0,208.13687)" stroke-width="1" stroke-linecap="square" stroke-linejoin="round" fill="none" stroke="#1f77b4" d="M62.14517 64.855968 87.28153 61.982618 112.4179 62.229078 137.55426 50.862169 162.69063 46.961267 187.827 46.835058 212.96335 46.972875 238.09972 47.56161 263.23609 57.226694"/>
<g clip-path="url(#clip_2)">
<path transform="matrix(1,0,0,-1,62.145174,143.28092)" d="M0-2C.530406-2 1.03916-1.789267 1.414214-1.414214 1.789267-1.03916 2-.530406 2 0 2 .530406 1.789267 1.03916 1.414214 1.414214 1.03916 1.789267 .530406 2 0 2-.530406 2-1.03916 1.789267-1.414214 1.414214-1.789267 1.03916-2 .530406-2 0-2-.530406-1.789267-1.03916-1.414214-1.414214-1.03916-1.789267-.530406-2 0-2Z" fill="#1f77b4"/>
<path transform="matrix(1,0,0,-1,62.145174,143.28092)" stroke-width="1" stroke-linecap="butt" stroke-linejoin="round" fill="none" stroke="#1f77b4" d="M0-2C.530406-2 1.03916-1.789267 1.414214-1.414214 1.789267-1.03916 2-.530406 2 0 2 .530406 1.789267 1.03916 1.414214 1.414214 1.03916 1.789267 .530406 2 0 2-.530406 2-1.03916 1.789267-1.414214 1.414214-1.789267 1.03916-2 .530406-2 0-2-.530406-1.789267-1.03916-1.414214-1.414214-1.03916-1.789267-.530406-2 0-2Z"/>
</g>
<g clip-path="url(#clip_3)">
<path transform="matrix(1,0,0,-1,87.28154,146.15427)" d="M0-2C.530406-2 1.03916-1.789267 1.414214-1.414214 1.789267-1.03916 2-.530406 2 0 2 .530406 1.789267 1.03916 1.414214 1.414214 1.03916 1.789267 .530406 2 0 2-.530406 2-1.03916 1.789267-1.414214 1.414214-1.789267 1.03916-2 .530406-2 0-2-.530406-1.789267-1.03916-1.414214-1.414214-1.03916-1.789267-.530406-2 0-2Z" fill="#1f77b4"/>
<path transform="matrix(1,0,0,-1,87.28154,146.15427)" stroke-width="1" stroke-linecap="butt" stroke-linejoin="round" fill="none" stroke="#1f77b4" d="M0-2C.530406-2 1.03916-1.789267 1.414214-1.414214 1.789267-1.03916 2-.530406 2 0 2 .530406 1.789267 1.03916 1.414214 1.414214 1.03916 1.789267 .530406 2 0 2-.530406 2-1.03916 1.789267-1.414214 1.414214-1.789267 1.03916-2 .530406-2 0-2-.530406-1.789267-1.03916-1.414214-1.414214-1.03916-1.789267-.530406-2 0-2Z"/>
</g>
<g clip-path="url(#clip_4)">
<path transform="matrix(1,0,0,-1,112.41791,145.9078)" d="M0-2C.530406-2 1.03916-1.789267 1.414214-1.414214 1.789267-1.03916 2-.530406 2 0 2 .530406 1.789267 1.03916 1.414214 1.414214 1.03916 1.789267 .530406 2 0 2-.530406 2-1.03916 1.789267-1.414214 1.414214-1.789267 1.03916-2 .530406-2 0-2-.530406-1.789267-1.03916-1.414214-1.414214-1.03916-1.789267-.530406-2 0-2Z" fill="#1f77b4"/>
<path transform="matrix(1,0,0,-1,112.41791,145.9078)" stroke-width="1" stroke-linecap="butt" stroke-linejoin="round" fill="none" stroke="#1f77b4" d="M0-2C.530406-2 1.03916-1.789267 1.414214-1.414214 1.789267-1.03916 2-.530406 2 0 2 .530406 1.789267 1.03916 1.414214 1.414214 1.03916 1.789267 .530406 2 0 2-.530406 2-1.03916 1.789267-1.414214 1.414214-1.789267 1.03916-2 .530406-2 0-2-.530406-1.789267-1.03916-1.414214-1.414214-1.03916-1.789267-.530406-2 0-2Z"/>
</g>
<g clip-path="url(#clip_5)">
<path transform="matrix(1,0,0,-1,137.55428,157.27472)" d="M0-2C.530406-2 1.03916-1.789267 1.414214-1.414214 1.789267-1.03916 2-.530406 2 0 2 .530406 1.789267 1.03916 1.414214 1.414214 1.03916 1.789267 .530406 2 0 2-.530406 2-1.03916 1.789267-1.414214 1.414214-1.789267 1.03916-2 .530406-2 0-2-.530406-1.789267-1.03916-1.414214-1.414214-1.03916-1.789267-.530406-2 0-2Z" fill="#1f77b4"/>
<path transform="matrix(1,0,0,-1,137.55428,157.27472)" stroke-width="1" stroke-linecap="butt" stroke-linejoin="round" fill="none" stroke="#1f77b4" d="M0-2C.530406-2 1.03916-1.789267 1.414214-1.414214 1.789267-1.03916 2-.530406 2 0 2 .530406 1.789267 1.03916 1.414214 1.414214 1.03916 1.789267 .530406 2 0 2-.530406 2-1.03916 1.789267-1.414214 1.414214-1.789267 1.03916-2 .530406-2 0-2-.530406-1.789267-1.03916-1.414214-1.414214-1.03916-1.789267-.530406-2 0-2Z"/>
</g>
<g clip-path="url(#clip_6)">
<path transform="matrix(1,0,0,-1,162.69065,161.17563)" d="M0-2C.530406-2 1.03916-1.789267 1.414214-1.414214 1.789267-1.03916 2-.530406 2 0 2 .530406 1.789267 1.03916 1.414214 1.414214 1.03916 1.789267 .530406 2 0 2-.530406 2-1.03916 1.789267-1.414214 1.414214-1.789267 1.03916-2 .530406-2 0-2-.530406-1.789267-1.03916-1.414214-1.414214-1.03916-1.789267-.530406-2 0-2Z" fill="#1f77b4"/>
<path transform="matrix(1,0,0,-1,162.69065,161.17563)" stroke-width="1" stroke-linecap="butt" stroke-linejoin="round" fill="none" stroke="#1f77b4" d="M0-2C.530406-2 1.03916-1.789267 1.414214-1.414214 1.789267-1.03916 2-.530406 2 0 2 .530406 1.789267 1.03916 1.414214 1.414214 1.03916 1.789267 .530406 2 0 2-.530406 2-1.03916 1.789267-1.414214 1.414214-1.789267 1.03916-2 .530406-2 0-2-.530406-1.789267-1.03916-1.414214-1.414214-1.03916-1.789267-.530406-2 0-2Z"/>
</g>
<g clip-path="url(#clip_7)">
<path transform="matrix(1,0,0,-1,187.82701,161.30184)" d="M0-2C.530406-2 1.03916-1.789267 1.414214-1.414214 1.789267-1.03916 2-.530406 2 0 2 .530406 1.789267 1.03916 1.414214 1.414214 1.03916 1.789267 .530406 2 0 2-.530406 2-1.03916 1.789267-1.414214 1.414214-1.789267 1.03916-2 .530406-2 0-2-.530406-1.789267-1.03916-1.414214-1.414214-1.03916-1.789267-.530406-2 0-2Z" fill="#1f77b4"/>
<path transform="matrix(1,0,0,-1,187.82701,161.30184)" stroke-width="1" stroke-linecap="butt" stroke-linejoin="round" fill="none" stroke="#1f77b4" d="M0-2C.530406-2 1.03916-1.789267 1.414214-1.414214 1.789267-1.03916 2-.530406 2 0 2 .530406 1.789267 1.03916 1.414214 1.414214 1.03916 1.789267 .530406 2 0 2-.530406 2-1.03916 1.789267-1.414214 1.414214-1.789267 1.03916-2 .530406-2 0-2-.530406-1.789267-1.03916-1.414214-1.414214-1.03916-1.789267-.530406-2 0-2Z"/>
</g>
<g clip-path="url(#clip_8)">
<path transform="matrix(1,0,0,-1,212.96338,161.16402)" d="M0-2C.530406-2 1.03916-1.789267 1.414214-1.414214 1.789267-1.03916 2-.530406 2 0 2 .530406 1.789267 1.03916 1.414214 1.414214 1.03916 1.789267 .530406 2 0 2-.530406 2-1.03916 1.789267-1.414214 1.414214-1.789267 1.03916-2 .530406-2 0-2-.530406-1.789267-1.03916-1.414214-1.414214-1.03916-1.789267-.530406-2 0-2Z" fill="#1f77b4"/>
<path transform="matrix(1,0,0,-1,212.96338,161.16402)" stroke-width="1" stroke-linecap="butt" stroke-linejoin="round" fill="none" stroke="#1f77b4" d="M0-2C.530406-2 1.03916-1.789267 1.414214-1.414214 1.789267-1.03916 2-.530406 2 0 2 .530406 1.789267 1.03916 1.414214 1.414214 1.03916 1.789267 .530406 2 0 2-.530406 2-1.03916 1.789267-1.414214 1.414214-1.789267 1.03916-2 .530406-2 0-2-.530406-1.789267-1.03916-1.414214-1.414214-1.03916-1.789267-.530406-2 0-2Z"/>
</g>
<g clip-path="url(#clip_9)">
<path transform="matrix(1,0,0,-1,238.09975,160.57529)" d="M0-2C.530406-2 1.03916-1.789267 1.414214-1.414214 1.789267-1.03916 2-.530406 2 0 2 .530406 1.789267 1.03916 1.414214 1.414214 1.03916 1.789267 .530406 2 0 2-.530406 2-1.03916 1.789267-1.414214 1.414214-1.789267 1.03916-2 .530406-2 0-2-.530406-1.789267-1.03916-1.414214-1.414214-1.03916-1.789267-.530406-2 0-2Z" fill="#1f77b4"/>
<path transform="matrix(1,0,0,-1,238.09975,160.57529)" stroke-width="1" stroke-linecap="butt" stroke-linejoin="round" fill="none" stroke="#1f77b4" d="M0-2C.530406-2 1.03916-1.789267 1.414214-1.414214 1.789267-1.03916 2-.530406 2 0 2 .530406 1.789267 1.03916 1.414214 1.414214 1.03916 1.789267 .530406 2 0 2-.530406 2-1.03916 1.789267-1.414214 1.414214-1.789267 1.03916-2 .530406-2 0-2-.530406-1.789267-1.03916-1.414214-1.414214-1.03916-1.789267-.530406-2 0-2Z"/>
</g>
<g clip-path="url(#clip_10)">
<path transform="matrix(1,0,0,-1,263.2361,150.9102)" d="M0-2C.530406-2 1.03916-1.789267 1.414214-1.414214 1.789267-1.03916 2-.530406 2 0 2 .530406 1.789267 1.03916 1.414214 1.414214 1.03916 1.789267 .530406 2 0 2-.530406 2-1.03916 1.789267-1.414214 1.414214-1.789267 1.03916-2 .530406-2 0-2-.530406-1.789267-1.03916-1.414214-1.414214-1.03916-1.789267-.530406-2 0-2Z" fill="#1f77b4"/>
<path transform="matrix(1,0,0,-1,263.2361,150.9102)" stroke-width="1" stroke-linecap="butt" stroke-linejoin="round" fill="none" stroke="#1f77b4" d="M0-2C.530406-2 1.03916-1.789267 1.414214-1.414214 1.789267-1.03916 2-.530406 2 0 2 .530406 1.789267 1.03916 1.414214 1.414214 1.03916 1.789267 .530406 2 0 2-.530406 2-1.03916 1.789267-1.414214 1.414214-1.789267 1.03916-2 .530406-2 0-2-.530406-1.789267-1.03916-1.414214-1.414214-1.03916-1.789267-.530406-2 0-2Z"/>
</g>
</g>
<g clip-path="url(#clip_11)">
<path transform="matrix(1,0,0,-1,0,208.13687)" stroke-width="1" stroke-linecap="square" stroke-linejoin="round" fill="none" stroke="#ff7f0e" d="M62.14517 75.53435 87.28153 61.596227 112.4179 63.369874 137.55426 52.13136 162.69063 51.073896 187.827 50.568254 212.96335 61.59462 238.09972 85.06804 263.23609 193.5987"/>
<g clip-path="url(#clip_12)">
<path transform="matrix(1,0,0,-1,62.145174,132.60253)" d="M0-2C.530406-2 1.03916-1.789267 1.414214-1.414214 1.789267-1.03916 2-.530406 2 0 2 .530406 1.789267 1.03916 1.414214 1.414214 1.03916 1.789267 .530406 2 0 2-.530406 2-1.03916 1.789267-1.414214 1.414214-1.789267 1.03916-2 .530406-2 0-2-.530406-1.789267-1.03916-1.414214-1.414214-1.03916-1.789267-.530406-2 0-2Z" fill="#ff7f0e"/>
<path transform="matrix(1,0,0,-1,62.145174,132.60253)" stroke-width="1" stroke-linecap="butt" stroke-linejoin="round" fill="none" stroke="#ff7f0e" d="M0-2C.530406-2 1.03916-1.789267 1.414214-1.414214 1.789267-1.03916 2-.530406 2 0 2 .530406 1.789267 1.03916 1.414214 1.414214 1.03916 1.789267 .530406 2 0 2-.530406 2-1.03916 1.789267-1.414214 1.414214-1.789267 1.03916-2 .530406-2 0-2-.530406-1.789267-1.03916-1.414214-1.414214-1.03916-1.789267-.530406-2 0-2Z"/>
</g>
<g clip-path="url(#clip_13)">
<path transform="matrix(1,0,0,-1,87.28154,146.54065)" d="M0-2C.530406-2 1.03916-1.789267 1.414214-1.414214 1.789267-1.03916 2-.530406 2 0 2 .530406 1.789267 1.03916 1.414214 1.414214 1.03916 1.789267 .530406 2 0 2-.530406 2-1.03916 1.789267-1.414214 1.414214-1.789267 1.03916-2 .530406-2 0-2-.530406-1.789267-1.03916-1.414214-1.414214-1.03916-1.789267-.530406-2 0-2Z" fill="#ff7f0e"/>
<path transform="matrix(1,0,0,-1,87.28154,146.54065)" stroke-width="1" stroke-linecap="butt" stroke-linejoin="round" fill="none" stroke="#ff7f0e" d="M0-2C.530406-2 1.03916-1.789267 1.414214-1.414214 1.789267-1.03916 2-.530406 2 0 2 .530406 1.789267 1.03916 1.414214 1.414214 1.03916 1.789267 .530406 2 0 2-.530406 2-1.03916 1.789267-1.414214 1.414214-1.789267 1.03916-2 .530406-2 0-2-.530406-1.789267-1.03916-1.414214-1.414214-1.03916-1.789267-.530406-2 0-2Z"/>
</g>
<g clip-path="url(#clip_14)">
<path transform="matrix(1,0,0,-1,112.41791,144.767)" d="M0-2C.530406-2 1.03916-1.789267 1.414214-1.414214 1.789267-1.03916 2-.530406 2 0 2 .530406 1.789267 1.03916 1.414214 1.414214 1.03916 1.789267 .530406 2 0 2-.530406 2-1.03916 1.789267-1.414214 1.414214-1.789267 1.03916-2 .530406-2 0-2-.530406-1.789267-1.03916-1.414214-1.414214-1.03916-1.789267-.530406-2 0-2Z" fill="#ff7f0e"/>
<path transform="matrix(1,0,0,-1,112.41791,144.767)" stroke-width="1" stroke-linecap="butt" stroke-linejoin="round" fill="none" stroke="#ff7f0e" d="M0-2C.530406-2 1.03916-1.789267 1.414214-1.414214 1.789267-1.03916 2-.530406 2 0 2 .530406 1.789267 1.03916 1.414214 1.414214 1.03916 1.789267 .530406 2 0 2-.530406 2-1.03916 1.789267-1.414214 1.414214-1.789267 1.03916-2 .530406-2 0-2-.530406-1.789267-1.03916-1.414214-1.414214-1.03916-1.789267-.530406-2 0-2Z"/>
</g>
<g clip-path="url(#clip_15)">
<path transform="matrix(1,0,0,-1,137.55428,156.00551)" d="M0-2C.530406-2 1.03916-1.789267 1.414214-1.414214 1.789267-1.03916 2-.530406 2 0 2 .530406 1.789267 1.03916 1.414214 1.414214 1.03916 1.789267 .530406 2 0 2-.530406 2-1.03916 1.789267-1.414214 1.414214-1.789267 1.03916-2 .530406-2 0-2-.530406-1.789267-1.03916-1.414214-1.414214-1.03916-1.789267-.530406-2 0-2Z" fill="#ff7f0e"/>
<path transform="matrix(1,0,0,-1,137.55428,156.00551)" stroke-width="1" stroke-linecap="butt" stroke-linejoin="round" fill="none" stroke="#ff7f0e" d="M0-2C.530406-2 1.03916-1.789267 1.414214-1.414214 1.789267-1.03916 2-.530406 2 0 2 .530406 1.789267 1.03916 1.414214 1.414214 1.03916 1.789267 .530406 2 0 2-.530406 2-1.03916 1.789267-1.414214 1.414214-1.789267 1.03916-2 .530406-2 0-2-.530406-1.789267-1.03916-1.414214-1.414214-1.03916-1.789267-.530406-2 0-2Z"/>
</g>
<g clip-path="url(#clip_16)">
<path transform="matrix(1,0,0,-1,162.69065,157.06298)" d="M0-2C.530406-2 1.03916-1.789267 1.414214-1.414214 1.789267-1.03916 2-.530406 2 0 2 .530406 1.789267 1.03916 1.414214 1.414214 1.03916 1.789267 .530406 2 0 2-.530406 2-1.03916 1.789267-1.414214 1.414214-1.789267 1.03916-2 .530406-2 0-2-.530406-1.789267-1.03916-1.414214-1.414214-1.03916-1.789267-.530406-2 0-2Z" fill="#ff7f0e"/>
<path transform="matrix(1,0,0,-1,162.69065,157.06298)" stroke-width="1" stroke-linecap="butt" stroke-linejoin="round" fill="none" stroke="#ff7f0e" d="M0-2C.530406-2 1.03916-1.789267 1.414214-1.414214 1.789267-1.03916 2-.530406 2 0 2 .530406 1.789267 1.03916 1.414214 1.414214 1.03916 1.789267 .530406 2 0 2-.530406 2-1.03916 1.789267-1.414214 1.414214-1.789267 1.03916-2 .530406-2 0-2-.530406-1.789267-1.03916-1.414214-1.414214-1.03916-1.789267-.530406-2 0-2Z"/>
</g>
<g clip-path="url(#clip_17)">
<path transform="matrix(1,0,0,-1,187.82701,157.56862)" d="M0-2C.530406-2 1.03916-1.789267 1.414214-1.414214 1.789267-1.03916 2-.530406 2 0 2 .530406 1.789267 1.03916 1.414214 1.414214 1.03916 1.789267 .530406 2 0 2-.530406 2-1.03916 1.789267-1.414214 1.414214-1.789267 1.03916-2 .530406-2 0-2-.530406-1.789267-1.03916-1.414214-1.414214-1.03916-1.789267-.530406-2 0-2Z" fill="#ff7f0e"/>
<path transform="matrix(1,0,0,-1,187.82701,157.56862)" stroke-width="1" stroke-linecap="butt" stroke-linejoin="round" fill="none" stroke="#ff7f0e" d="M0-2C.530406-2 1.03916-1.789267 1.414214-1.414214 1.789267-1.03916 2-.530406 2 0 2 .530406 1.789267 1.03916 1.414214 1.414214 1.03916 1.789267 .530406 2 0 2-.530406 2-1.03916 1.789267-1.414214 1.414214-1.789267 1.03916-2 .530406-2 0-2-.530406-1.789267-1.03916-1.414214-1.414214-1.03916-1.789267-.530406-2 0-2Z"/>
</g>
<g clip-path="url(#clip_18)">
<path transform="matrix(1,0,0,-1,212.96338,146.54225)" d="M0-2C.530406-2 1.03916-1.789267 1.414214-1.414214 1.789267-1.03916 2-.530406 2 0 2 .530406 1.789267 1.03916 1.414214 1.414214 1.03916 1.789267 .530406 2 0 2-.530406 2-1.03916 1.789267-1.414214 1.414214-1.789267 1.03916-2 .530406-2 0-2-.530406-1.789267-1.03916-1.414214-1.414214-1.03916-1.789267-.530406-2 0-2Z" fill="#ff7f0e"/>
<path transform="matrix(1,0,0,-1,212.96338,146.54225)" stroke-width="1" stroke-linecap="butt" stroke-linejoin="round" fill="none" stroke="#ff7f0e" d="M0-2C.530406-2 1.03916-1.789267 1.414214-1.414214 1.789267-1.03916 2-.530406 2 0 2 .530406 1.789267 1.03916 1.414214 1.414214 1.03916 1.789267 .530406 2 0 2-.530406 2-1.03916 1.789267-1.414214 1.414214-1.789267 1.03916-2 .530406-2 0-2-.530406-1.789267-1.03916-1.414214-1.414214-1.03916-1.789267-.530406-2 0-2Z"/>
</g>
<g clip-path="url(#clip_19)">
<path transform="matrix(1,0,0,-1,238.09975,123.06883)" d="M0-2C.530406-2 1.03916-1.789267 1.414214-1.414214 1.789267-1.03916 2-.530406 2 0 2 .530406 1.789267 1.03916 1.414214 1.414214 1.03916 1.789267 .530406 2 0 2-.530406 2-1.03916 1.789267-1.414214 1.414214-1.789267 1.03916-2 .530406-2 0-2-.530406-1.789267-1.03916-1.414214-1.414214-1.03916-1.789267-.530406-2 0-2Z" fill="#ff7f0e"/>
<path transform="matrix(1,0,0,-1,238.09975,123.06883)" stroke-width="1" stroke-linecap="butt" stroke-linejoin="round" fill="none" stroke="#ff7f0e" d="M0-2C.530406-2 1.03916-1.789267 1.414214-1.414214 1.789267-1.03916 2-.530406 2 0 2 .530406 1.789267 1.03916 1.414214 1.414214 1.03916 1.789267 .530406 2 0 2-.530406 2-1.03916 1.789267-1.414214 1.414214-1.789267 1.03916-2 .530406-2 0-2-.530406-1.789267-1.03916-1.414214-1.414214-1.03916-1.789267-.530406-2 0-2Z"/>
</g>
<g clip-path="url(#clip_20)">
<path transform="matrix(1,0,0,-1,263.2361,14.5381779)" d="M0-2C.530406-2 1.03916-1.789267 1.414214-1.414214 1.789267-1.03916 2-.530406 2 0 2 .530406 1.789267 1.03916 1.414214 1.414214 1.03916 1.789267 .530406 2 0 2-.530406 2-1.03916 1.789267-1.414214 1.414214-1.789267 1.03916-2 .530406-2 0-2-.530406-1.789267-1.03916-1.414214-1.414214-1.03916-1.789267-.530406-2 0-2Z" fill="#ff7f0e"/>
<path transform="matrix(1,0,0,-1,263.2361,14.5381779)" stroke-width="1" stroke-linecap="butt" stroke-linejoin="round" fill="none" stroke="#ff7f0e" d="M0-2C.530406-2 1.03916-1.789267 1.414214-1.414214 1.789267-1.03916 2-.530406 2 0 2 .530406 1.789267 1.03916 1.414214 1.414214 1.03916 1.789267 .530406 2 0 2-.530406 2-1.03916 1.789267-1.414214 1.414214-1.789267 1.03916-2 .530406-2 0-2-.530406-1.789267-1.03916-1.414214-1.414214-1.03916-1.789267-.530406-2 0-2Z"/>
</g>
</g>
<path transform="matrix(1,0,0,-1,0,208.13687)" stroke-width=".8" stroke-linecap="square" stroke-miterlimit="10" stroke-linejoin="miter" fill="none" stroke="#000000" d="M52.090627 39.496877V200.93688"/>
<path transform="matrix(1,0,0,-1,0,208.13687)" stroke-width=".8" stroke-linecap="square" stroke-miterlimit="10" stroke-linejoin="miter" fill="none" stroke="#000000" d="M273.29063 39.496877V200.93688"/>
<path transform="matrix(1,0,0,-1,0,208.13687)" stroke-width=".8" stroke-linecap="square" stroke-miterlimit="10" stroke-linejoin="miter" fill="none" stroke="#000000" d="M52.090627 39.496877H273.29063"/>
<path transform="matrix(1,0,0,-1,0,208.13687)" stroke-width=".8" stroke-linecap="square" stroke-miterlimit="10" stroke-linejoin="miter" fill="none" stroke="#000000" d="M52.090627 200.93688H273.29063"/>
<path transform="matrix(1,0,0,-1,0,208.13687)" stroke-width="1" stroke-linecap="square" stroke-linejoin="round" fill="none" stroke="#1f77b4" d="M57.923376 190.01187H69.92338 81.92338"/>
<path transform="matrix(1,0,0,-1,0,208.13687)" d="M69.92338 188.01187C70.45378 188.01187 70.96253 188.22261 71.337589 188.59766 71.71264 188.97272 71.92338 189.48148 71.92338 190.01187 71.92338 190.54228 71.71264 191.05104 71.337589 191.42609 70.96253 191.80115 70.45378 192.01187 69.92338 192.01187 69.39297 192.01187 68.88422 191.80115 68.50916 191.42609 68.13411 191.05104 67.92338 190.54228 67.92338 190.01187 67.92338 189.48148 68.13411 188.97272 68.50916 188.59766 68.88422 188.22261 69.39297 188.01187 69.92338 188.01187Z" fill="#1f77b4"/>
<path transform="matrix(1,0,0,-1,0,208.13687)" stroke-width="1" stroke-linecap="butt" stroke-linejoin="round" fill="none" stroke="#1f77b4" d="M69.92338 188.01187C70.45378 188.01187 70.96253 188.22261 71.337589 188.59766 71.71264 188.97272 71.92338 189.48148 71.92338 190.01187 71.92338 190.54228 71.71264 191.05104 71.337589 191.42609 70.96253 191.80115 70.45378 192.01187 69.92338 192.01187 69.39297 192.01187 68.88422 191.80115 68.50916 191.42609 68.13411 191.05104 67.92338 190.54228 67.92338 190.01187 67.92338 189.48148 68.13411 188.97272 68.50916 188.59766 68.88422 188.22261 69.39297 188.01187 69.92338 188.01187Z"/>
<use data-text="S" xlink:href="#font_0_22" transform="matrix(12,0,0,-12,91.52338,22.324997)"/>
<use data-text="h" xlink:href="#font_0_28" transform="matrix(12,0,0,-12,99.14338,22.324997)"/>
<use data-text="a" xlink:href="#font_0_24" transform="matrix(12,0,0,-12,106.75137,22.324997)"/>
<use data-text="r" xlink:href="#font_0_36" transform="matrix(12,0,0,-12,114.107379,22.324997)"/>
<use data-text="e" xlink:href="#font_0_27" transform="matrix(12,0,0,-12,118.78938,22.324997)"/>
<use data-text="G" xlink:href="#font_0_19" transform="matrix(12,0,0,-12,126.16938,22.324997)"/>
<use data-text="P" xlink:href="#font_0_21" transform="matrix(12,0,0,-12,135.46938,22.324997)"/>
<use data-text="T" xlink:href="#font_0_23" transform="matrix(12,0,0,-12,142.70539,22.324997)"/>
<path transform="matrix(1,0,0,-1,0,208.13687)" stroke-width="1" stroke-linecap="square" stroke-linejoin="round" fill="none" stroke="#ff7f0e" d="M57.923376 172.38687H69.92338 81.92338"/>
<path transform="matrix(1,0,0,-1,0,208.13687)" d="M69.92338 170.38687C70.45378 170.38687 70.96253 170.59761 71.337589 170.97266 71.71264 171.34772 71.92338 171.85648 71.92338 172.38687 71.92338 172.91728 71.71264 173.42604 71.337589 173.80109 70.96253 174.17615 70.45378 174.38687 69.92338 174.38687 69.39297 174.38687 68.88422 174.17615 68.50916 173.80109 68.13411 173.42604 67.92338 172.91728 67.92338 172.38687 67.92338 171.85648 68.13411 171.34772 68.50916 170.97266 68.88422 170.59761 69.39297 170.38687 69.92338 170.38687Z" fill="#ff7f0e"/>
<path transform="matrix(1,0,0,-1,0,208.13687)" stroke-width="1" stroke-linecap="butt" stroke-linejoin="round" fill="none" stroke="#ff7f0e" d="M69.92338 170.38687C70.45378 170.38687 70.96253 170.59761 71.337589 170.97266 71.71264 171.34772 71.92338 171.85648 71.92338 172.38687 71.92338 172.91728 71.71264 173.42604 71.337589 173.80109 70.96253 174.17615 70.45378 174.38687 69.92338 174.38687 69.39297 174.38687 68.88422 174.17615 68.50916 173.80109 68.13411 173.42604 67.92338 172.91728 67.92338 172.38687 67.92338 171.85648 68.13411 171.34772 68.50916 170.97266 68.88422 170.59761 69.39297 170.38687 69.92338 170.38687Z"/>
<use data-text="A" xlink:href="#font_0_17" transform="matrix(12,0,0,-12,91.52338,39.949998)"/>
<use data-text="l" xlink:href="#font_0_31" transform="matrix(12,0,0,-12,99.73138,39.949998)"/>
<use data-text="p" xlink:href="#font_0_35" transform="matrix(12,0,0,-12,103.067378,39.949998)"/>
<use data-text="a" xlink:href="#font_0_24" transform="matrix(12,0,0,-12,110.68738,39.949998)"/>
<use data-text="c" xlink:href="#font_0_25" transform="matrix(12,0,0,-12,118.04338,39.949998)"/>
<use data-text="a" xlink:href="#font_0_24" transform="matrix(12,0,0,-12,124.64338,39.949998)"/>
</svg>
